<mxfile host="65bd71144e">
    <diagram id="tr8WCDj-hul7nBdrf4UF" name="Страница 1">
        <mxGraphModel dx="693" dy="538" grid="1" gridSize="10" guides="1" tooltips="1" connect="0" arrows="1" fold="1" page="1" pageScale="1" pageWidth="827" pageHeight="1169" math="0" shadow="0">
            <root>
                <mxCell id="0"/>
                <mxCell id="1" parent="0"/>
                <mxCell id="2" style="edgeStyle=orthogonalEdgeStyle;rounded=0;orthogonalLoop=1;jettySize=auto;html=1;" parent="1" source="3" edge="1">
                    <mxGeometry relative="1" as="geometry">
                        <mxPoint x="375" y="150" as="targetPoint"/>
                    </mxGeometry>
                </mxCell>
                <mxCell id="3" value="Запуск" style="rounded=1;whiteSpace=wrap;html=1;arcSize=50;" parent="1" vertex="1">
                    <mxGeometry x="305" y="20" width="140" height="40" as="geometry"/>
                </mxCell>
                <mxCell id="5" value="#include &amp;lt;iostream&amp;gt;&lt;br&gt;using namespace std;" style="strokeWidth=2;html=1;shape=mxgraph.flowchart.annotation_2;align=left;labelPosition=right;pointerEvents=1;" parent="1" vertex="1">
                    <mxGeometry x="458.01" y="40" width="20" height="80" as="geometry"/>
                </mxCell>
                <mxCell id="6" value="" style="endArrow=none;dashed=1;html=1;entryX=0;entryY=0.5;entryDx=0;entryDy=0;entryPerimeter=0;" parent="1" target="5" edge="1">
                    <mxGeometry width="50" height="50" relative="1" as="geometry">
                        <mxPoint x="375" y="80" as="sourcePoint"/>
                        <mxPoint x="465" y="70" as="targetPoint"/>
                    </mxGeometry>
                </mxCell>
                <mxCell id="7" value="Конец" style="rounded=1;whiteSpace=wrap;html=1;arcSize=50;" parent="1" vertex="1">
                    <mxGeometry x="305" y="1970" width="140" height="40" as="geometry"/>
                </mxCell>
                <mxCell id="10" value="return 0;&lt;br&gt;}" style="strokeWidth=2;html=1;shape=mxgraph.flowchart.annotation_2;align=left;labelPosition=right;pointerEvents=1;" parent="1" vertex="1">
                    <mxGeometry x="476.75" y="1920" width="20" height="60" as="geometry"/>
                </mxCell>
                <mxCell id="11" value="" style="endArrow=none;dashed=1;html=1;entryX=0;entryY=0.5;entryDx=0;entryDy=0;entryPerimeter=0;" parent="1" edge="1">
                    <mxGeometry width="50" height="50" relative="1" as="geometry">
                        <mxPoint x="376.75" y="1950" as="sourcePoint"/>
                        <mxPoint x="476.75" y="1950" as="targetPoint"/>
                    </mxGeometry>
                </mxCell>
                <mxCell id="383" style="edgeStyle=orthogonalEdgeStyle;html=1;rounded=0;" parent="1" source="354" target="382" edge="1">
                    <mxGeometry relative="1" as="geometry"/>
                </mxCell>
                <mxCell id="354" value="int main() {" style="ellipse;whiteSpace=wrap;html=1;" parent="1" vertex="1">
                    <mxGeometry x="315" y="150" width="120" height="60" as="geometry"/>
                </mxCell>
                <mxCell id="386" style="edgeStyle=orthogonalEdgeStyle;rounded=0;html=1;" parent="1" source="382" target="384" edge="1">
                    <mxGeometry relative="1" as="geometry"/>
                </mxCell>
                <mxCell id="382" value="setlocale(LC_ALL, &quot;Russian&quot;);" style="rounded=0;whiteSpace=wrap;html=1;" parent="1" vertex="1">
                    <mxGeometry x="300" y="250" width="150" height="40" as="geometry"/>
                </mxCell>
                <mxCell id="387" style="edgeStyle=orthogonalEdgeStyle;rounded=0;html=1;" parent="1" source="384" target="385" edge="1">
                    <mxGeometry relative="1" as="geometry"/>
                </mxCell>
                <mxCell id="384" value="int n;" style="rounded=0;whiteSpace=wrap;html=1;" parent="1" vertex="1">
                    <mxGeometry x="300" y="310" width="150" height="40" as="geometry"/>
                </mxCell>
                <mxCell id="391" style="edgeStyle=orthogonalEdgeStyle;rounded=0;html=1;" parent="1" source="385" target="390" edge="1">
                    <mxGeometry relative="1" as="geometry"/>
                </mxCell>
                <mxCell id="385" value="double k;" style="rounded=0;whiteSpace=wrap;html=1;" parent="1" vertex="1">
                    <mxGeometry x="300" y="370" width="150" height="40" as="geometry"/>
                </mxCell>
                <mxCell id="393" style="edgeStyle=orthogonalEdgeStyle;rounded=0;html=1;" parent="1" source="390" target="392" edge="1">
                    <mxGeometry relative="1" as="geometry"/>
                </mxCell>
                <mxCell id="390" value="cout &amp;lt;&amp;lt; &quot;Введите размера стека: &quot;;" style="shape=parallelogram;perimeter=parallelogramPerimeter;whiteSpace=wrap;html=1;fixedSize=1;" parent="1" vertex="1">
                    <mxGeometry x="188.38" y="440" width="373.25" height="40" as="geometry"/>
                </mxCell>
                <mxCell id="394" style="edgeStyle=orthogonalEdgeStyle;rounded=0;html=1;" parent="1" source="392" edge="1">
                    <mxGeometry relative="1" as="geometry">
                        <mxPoint x="375" y="560" as="targetPoint"/>
                    </mxGeometry>
                </mxCell>
                <mxCell id="392" value="cin &amp;gt;&amp;gt; n;" style="shape=parallelogram;perimeter=parallelogramPerimeter;whiteSpace=wrap;html=1;fixedSize=1;" parent="1" vertex="1">
                    <mxGeometry x="188.38" y="500" width="373.25" height="40" as="geometry"/>
                </mxCell>
                <mxCell id="422" style="edgeStyle=orthogonalEdgeStyle;rounded=0;html=1;" parent="1" source="420" target="421" edge="1">
                    <mxGeometry relative="1" as="geometry"/>
                </mxCell>
                <mxCell id="420" value="&lt;div&gt;void print(stack&amp;lt;double&amp;gt; st)&lt;/div&gt;" style="ellipse;whiteSpace=wrap;html=1;" parent="1" vertex="1">
                    <mxGeometry x="870.14" y="190" width="120" height="60" as="geometry"/>
                </mxCell>
                <mxCell id="424" style="edgeStyle=orthogonalEdgeStyle;rounded=0;html=1;" parent="1" source="421" edge="1">
                    <mxGeometry relative="1" as="geometry">
                        <mxPoint x="930.14" y="330" as="targetPoint"/>
                    </mxGeometry>
                </mxCell>
                <mxCell id="421" value="int num = st.size();" style="rounded=0;whiteSpace=wrap;html=1;" parent="1" vertex="1">
                    <mxGeometry x="855.14" y="270" width="150" height="40" as="geometry"/>
                </mxCell>
                <mxCell id="436" value="Конец" style="ellipse;whiteSpace=wrap;html=1;" parent="1" vertex="1">
                    <mxGeometry x="870.14" y="560" width="120" height="60" as="geometry"/>
                </mxCell>
                <mxCell id="450" style="edgeStyle=orthogonalEdgeStyle;rounded=0;html=1;entryX=-0.005;entryY=0.525;entryDx=0;entryDy=0;entryPerimeter=0;" parent="1" source="448" edge="1">
                    <mxGeometry relative="1" as="geometry">
                        <Array as="points">
                            <mxPoint x="1995" y="600"/>
                            <mxPoint x="1840" y="600"/>
                            <mxPoint x="1840" y="387"/>
                        </Array>
                        <mxPoint x="1899.0500000000002" y="387" as="targetPoint"/>
                    </mxGeometry>
                </mxCell>
                <mxCell id="480" style="edgeStyle=none;html=1;" edge="1" parent="1" source="478" target="479">
                    <mxGeometry relative="1" as="geometry"/>
                </mxCell>
                <mxCell id="485" style="edgeStyle=orthogonalEdgeStyle;rounded=0;html=1;" edge="1" parent="1" source="478" target="436">
                    <mxGeometry relative="1" as="geometry">
                        <Array as="points">
                            <mxPoint x="1050.1399999999999" y="355"/>
                            <mxPoint x="1050.1399999999999" y="540"/>
                            <mxPoint x="930.14" y="540"/>
                        </Array>
                    </mxGeometry>
                </mxCell>
                <mxCell id="478" value="for (int i = 0; i &amp;lt; num; i++)" style="shape=hexagon;perimeter=hexagonPerimeter2;whiteSpace=wrap;html=1;fixedSize=1;" vertex="1" parent="1">
                    <mxGeometry x="850.14" y="330" width="160" height="50" as="geometry"/>
                </mxCell>
                <mxCell id="483" style="edgeStyle=none;html=1;" edge="1" parent="1" source="479" target="482">
                    <mxGeometry relative="1" as="geometry"/>
                </mxCell>
                <mxCell id="479" value="cout &amp;lt;&amp;lt; st.top() &amp;lt;&amp;lt; &quot; &quot;;" style="shape=parallelogram;perimeter=parallelogramPerimeter;whiteSpace=wrap;html=1;fixedSize=1;" vertex="1" parent="1">
                    <mxGeometry x="830.14" y="400" width="200" height="40" as="geometry"/>
                </mxCell>
                <mxCell id="484" style="edgeStyle=orthogonalEdgeStyle;html=1;rounded=0;entryX=0.006;entryY=0.5;entryDx=0;entryDy=0;entryPerimeter=0;" edge="1" parent="1" source="482" target="478">
                    <mxGeometry relative="1" as="geometry">
                        <mxPoint x="810.14" y="390" as="targetPoint"/>
                        <Array as="points">
                            <mxPoint x="930.14" y="520"/>
                            <mxPoint x="800.14" y="520"/>
                            <mxPoint x="800.14" y="355"/>
                        </Array>
                    </mxGeometry>
                </mxCell>
                <mxCell id="482" value="st.pop();" style="rounded=0;whiteSpace=wrap;html=1;" vertex="1" parent="1">
                    <mxGeometry x="855.14" y="460" width="150" height="40" as="geometry"/>
                </mxCell>
                <mxCell id="488" style="edgeStyle=orthogonalEdgeStyle;rounded=0;html=1;" edge="1" parent="1" source="486" target="487">
                    <mxGeometry relative="1" as="geometry"/>
                </mxCell>
                <mxCell id="486" value="stack&amp;lt;double&amp;gt; st;" style="rounded=0;whiteSpace=wrap;html=1;" vertex="1" parent="1">
                    <mxGeometry x="300" y="560" width="150" height="40" as="geometry"/>
                </mxCell>
                <mxCell id="490" style="edgeStyle=orthogonalEdgeStyle;rounded=0;html=1;" edge="1" parent="1" source="487" target="489">
                    <mxGeometry relative="1" as="geometry"/>
                </mxCell>
                <mxCell id="495" style="edgeStyle=orthogonalEdgeStyle;rounded=0;html=1;" edge="1" parent="1" source="487" target="494">
                    <mxGeometry relative="1" as="geometry">
                        <Array as="points">
                            <mxPoint x="500" y="645"/>
                            <mxPoint x="500" y="850"/>
                            <mxPoint x="375" y="850"/>
                        </Array>
                    </mxGeometry>
                </mxCell>
                <mxCell id="487" value="for (int i = 0; i &amp;lt; n; i++)" style="shape=hexagon;perimeter=hexagonPerimeter2;whiteSpace=wrap;html=1;fixedSize=1;" vertex="1" parent="1">
                    <mxGeometry x="285.01" y="620" width="180" height="50" as="geometry"/>
                </mxCell>
                <mxCell id="492" style="edgeStyle=orthogonalEdgeStyle;rounded=0;html=1;" edge="1" parent="1" source="489" target="491">
                    <mxGeometry relative="1" as="geometry"/>
                </mxCell>
                <mxCell id="489" value="cin &amp;gt;&amp;gt; k;" style="shape=parallelogram;perimeter=parallelogramPerimeter;whiteSpace=wrap;html=1;fixedSize=1;" vertex="1" parent="1">
                    <mxGeometry x="317.5" y="700" width="115" height="50" as="geometry"/>
                </mxCell>
                <mxCell id="493" style="edgeStyle=orthogonalEdgeStyle;rounded=0;html=1;entryX=0.002;entryY=0.49;entryDx=0;entryDy=0;entryPerimeter=0;" edge="1" parent="1" source="491" target="487">
                    <mxGeometry relative="1" as="geometry">
                        <Array as="points">
                            <mxPoint x="375" y="830"/>
                            <mxPoint x="250" y="830"/>
                            <mxPoint x="250" y="645"/>
                        </Array>
                    </mxGeometry>
                </mxCell>
                <mxCell id="491" value="st.push(k);" style="rounded=0;whiteSpace=wrap;html=1;" vertex="1" parent="1">
                    <mxGeometry x="300" y="770" width="150" height="40" as="geometry"/>
                </mxCell>
                <mxCell id="497" style="edgeStyle=orthogonalEdgeStyle;rounded=0;html=1;" edge="1" parent="1" source="494" target="496">
                    <mxGeometry relative="1" as="geometry"/>
                </mxCell>
                <mxCell id="494" value="print(st);" style="shape=process;whiteSpace=wrap;html=1;backgroundOutline=1;" vertex="1" parent="1">
                    <mxGeometry x="315" y="870" width="120" height="60" as="geometry"/>
                </mxCell>
                <mxCell id="499" style="edgeStyle=orthogonalEdgeStyle;rounded=0;html=1;" edge="1" parent="1" source="496" target="498">
                    <mxGeometry relative="1" as="geometry"/>
                </mxCell>
                <mxCell id="496" value="cout &amp;lt;&amp;lt; endl;" style="shape=parallelogram;perimeter=parallelogramPerimeter;whiteSpace=wrap;html=1;fixedSize=1;" vertex="1" parent="1">
                    <mxGeometry x="317.5" y="960" width="115" height="50" as="geometry"/>
                </mxCell>
                <mxCell id="501" style="edgeStyle=orthogonalEdgeStyle;rounded=0;html=1;" edge="1" parent="1" source="498" target="500">
                    <mxGeometry relative="1" as="geometry"/>
                </mxCell>
                <mxCell id="498" value="stack&amp;lt;double&amp;gt; st2;" style="rounded=0;whiteSpace=wrap;html=1;" vertex="1" parent="1">
                    <mxGeometry x="300.01" y="1040" width="150" height="40" as="geometry"/>
                </mxCell>
                <mxCell id="503" style="edgeStyle=orthogonalEdgeStyle;rounded=0;html=1;" edge="1" parent="1" source="500" target="502">
                    <mxGeometry relative="1" as="geometry"/>
                </mxCell>
                <mxCell id="500" value="int count = 1;" style="rounded=0;whiteSpace=wrap;html=1;" vertex="1" parent="1">
                    <mxGeometry x="300" y="1100" width="150" height="40" as="geometry"/>
                </mxCell>
                <mxCell id="505" style="edgeStyle=orthogonalEdgeStyle;rounded=0;html=1;" edge="1" parent="1" source="502" target="504">
                    <mxGeometry relative="1" as="geometry"/>
                </mxCell>
                <mxCell id="517" style="edgeStyle=orthogonalEdgeStyle;rounded=0;html=1;" edge="1" parent="1" source="502" target="516">
                    <mxGeometry relative="1" as="geometry">
                        <Array as="points">
                            <mxPoint x="550" y="1194"/>
                            <mxPoint x="550" y="1550"/>
                            <mxPoint x="375" y="1550"/>
                        </Array>
                    </mxGeometry>
                </mxCell>
                <mxCell id="502" value="for (int i = 0; i &amp;lt; n; i++)" style="shape=hexagon;perimeter=hexagonPerimeter2;whiteSpace=wrap;html=1;fixedSize=1;" vertex="1" parent="1">
                    <mxGeometry x="285" y="1169" width="180" height="50" as="geometry"/>
                </mxCell>
                <mxCell id="508" value="1" style="edgeStyle=orthogonalEdgeStyle;rounded=0;html=1;" edge="1" parent="1" source="504" target="507">
                    <mxGeometry relative="1" as="geometry">
                        <Array as="points">
                            <mxPoint x="233" y="1280"/>
                        </Array>
                    </mxGeometry>
                </mxCell>
                <mxCell id="510" value="0" style="edgeStyle=orthogonalEdgeStyle;rounded=0;html=1;" edge="1" parent="1" source="504">
                    <mxGeometry x="-0.8739" relative="1" as="geometry">
                        <mxPoint x="370" y="1390" as="targetPoint"/>
                        <Array as="points">
                            <mxPoint x="490" y="1280"/>
                            <mxPoint x="490" y="1390"/>
                        </Array>
                        <mxPoint as="offset"/>
                    </mxGeometry>
                </mxCell>
                <mxCell id="504" value="if (count % 2 == 0)" style="rhombus;whiteSpace=wrap;html=1;" vertex="1" parent="1">
                    <mxGeometry x="307.5" y="1250" width="135.01" height="60" as="geometry"/>
                </mxCell>
                <mxCell id="509" style="edgeStyle=orthogonalEdgeStyle;rounded=0;html=1;" edge="1" parent="1" source="507">
                    <mxGeometry relative="1" as="geometry">
                        <mxPoint x="370" y="1390" as="targetPoint"/>
                        <Array as="points">
                            <mxPoint x="233" y="1390"/>
                        </Array>
                    </mxGeometry>
                </mxCell>
                <mxCell id="507" value="st2.push(st.top());" style="rounded=0;whiteSpace=wrap;html=1;" vertex="1" parent="1">
                    <mxGeometry x="157.5" y="1330" width="150" height="40" as="geometry"/>
                </mxCell>
                <mxCell id="514" style="edgeStyle=orthogonalEdgeStyle;rounded=0;html=1;" edge="1" parent="1" source="511" target="513">
                    <mxGeometry relative="1" as="geometry"/>
                </mxCell>
                <mxCell id="511" value="st.pop();" style="rounded=0;whiteSpace=wrap;html=1;" vertex="1" parent="1">
                    <mxGeometry x="295" y="1420" width="150" height="40" as="geometry"/>
                </mxCell>
                <mxCell id="512" value="" style="endArrow=classic;html=1;rounded=0;" edge="1" parent="1" target="511">
                    <mxGeometry width="50" height="50" relative="1" as="geometry">
                        <mxPoint x="370" y="1390" as="sourcePoint"/>
                        <mxPoint x="360" y="1420" as="targetPoint"/>
                    </mxGeometry>
                </mxCell>
                <mxCell id="515" style="edgeStyle=orthogonalEdgeStyle;rounded=0;html=1;entryX=0.002;entryY=0.527;entryDx=0;entryDy=0;entryPerimeter=0;" edge="1" parent="1" source="513" target="502">
                    <mxGeometry relative="1" as="geometry">
                        <Array as="points">
                            <mxPoint x="370" y="1540"/>
                            <mxPoint x="140" y="1540"/>
                            <mxPoint x="140" y="1195"/>
                        </Array>
                    </mxGeometry>
                </mxCell>
                <mxCell id="513" value="count++;" style="rounded=0;whiteSpace=wrap;html=1;" vertex="1" parent="1">
                    <mxGeometry x="295" y="1480" width="150" height="40" as="geometry"/>
                </mxCell>
                <mxCell id="519" style="edgeStyle=orthogonalEdgeStyle;rounded=0;html=1;" edge="1" parent="1" source="516" target="518">
                    <mxGeometry relative="1" as="geometry"/>
                </mxCell>
                <mxCell id="516" value="int num2 = st2.size();" style="rounded=0;whiteSpace=wrap;html=1;" vertex="1" parent="1">
                    <mxGeometry x="300.01" y="1580" width="150" height="40" as="geometry"/>
                </mxCell>
                <mxCell id="521" style="edgeStyle=orthogonalEdgeStyle;rounded=0;html=1;" edge="1" parent="1" source="518" target="520">
                    <mxGeometry relative="1" as="geometry"/>
                </mxCell>
                <mxCell id="525" style="edgeStyle=orthogonalEdgeStyle;rounded=0;html=1;" edge="1" parent="1" source="518" target="7">
                    <mxGeometry relative="1" as="geometry">
                        <Array as="points">
                            <mxPoint x="500" y="1675"/>
                            <mxPoint x="500" y="1890"/>
                            <mxPoint x="375" y="1890"/>
                        </Array>
                    </mxGeometry>
                </mxCell>
                <mxCell id="518" value="for (int i = 0; i &amp;lt; num2; i++)" style="shape=hexagon;perimeter=hexagonPerimeter2;whiteSpace=wrap;html=1;fixedSize=1;" vertex="1" parent="1">
                    <mxGeometry x="285" y="1650" width="180" height="50" as="geometry"/>
                </mxCell>
                <mxCell id="523" style="edgeStyle=orthogonalEdgeStyle;rounded=0;html=1;" edge="1" parent="1" source="520" target="522">
                    <mxGeometry relative="1" as="geometry"/>
                </mxCell>
                <mxCell id="520" value="cout &amp;lt;&amp;lt; st2.top() &amp;lt;&amp;lt; &quot; &quot;;" style="shape=parallelogram;perimeter=parallelogramPerimeter;whiteSpace=wrap;html=1;fixedSize=1;" vertex="1" parent="1">
                    <mxGeometry x="278.76" y="1740" width="192.5" height="40" as="geometry"/>
                </mxCell>
                <mxCell id="524" style="edgeStyle=orthogonalEdgeStyle;rounded=0;html=1;entryX=0.002;entryY=0.49;entryDx=0;entryDy=0;entryPerimeter=0;" edge="1" parent="1" source="522" target="518">
                    <mxGeometry relative="1" as="geometry">
                        <Array as="points">
                            <mxPoint x="375" y="1870"/>
                            <mxPoint x="250" y="1870"/>
                            <mxPoint x="250" y="1675"/>
                        </Array>
                    </mxGeometry>
                </mxCell>
                <mxCell id="522" value="st2.pop();" style="rounded=0;whiteSpace=wrap;html=1;" vertex="1" parent="1">
                    <mxGeometry x="300" y="1810" width="150" height="40" as="geometry"/>
                </mxCell>
            </root>
        </mxGraphModel>
    </diagram>
</mxfile>